<?xml version="1.0" encoding="utf-8"?>
<!-- Generator: Adobe Illustrator 19.2.0, SVG Export Plug-In . SVG Version: 6.00 Build 0)  -->
<svg version="1.1" id="Layer_1" xmlns="http://www.w3.org/2000/svg" xmlns:xlink="http://www.w3.org/1999/xlink" x="0px" y="0px"
	 viewBox="0 0 620.287 683.516" style="enable-background:new 0 0 620.287 683.516;" xml:space="preserve">
<style type="text/css">
	.st0{fill-rule:evenodd;clip-rule:evenodd;fill:#FFFFFF;}
</style>
<g>
	<g>
		<path class="st0" d="M32.565,346.534c0,0-21.975,8.191-29.888,32.805c-6.422,19.972-0.436,55.145,8.928,70.5
			c20.818,34.136,55.556,26.109,55.556,26.109s-21.234-28.202-30.086-58.473C26.003,379.611,32.565,346.534,32.565,346.534z
			 M331.743,140.15l-68.218,96.839L68.433,325.369l204.67-77.997L331.743,140.15z M263.699,671.191
			c-9.4,3.101-27.307,1.957-49.607-6.992c-37.651-15.11-36.453-187.651-36.453-187.651s-18.855,129.362,11.737,185.377
			c17.218,31.529,51.299,22.491,75.299,10.616s21.879-15.771,21.879-15.771S273.098,668.09,263.699,671.191z M276.057,552.702
			c0,0,21.885-30.53,6.711-47.041c-31.981-34.797-32.026-57.733-32.026-57.733s-13.597,13.687-15.667,29.51
			c-2.07,15.823,22.132,52.696,31.155,65.269c3.882,5.41-8.26,23.977-2.128,37.414c12.58,27.567,37.126,51.062,37.126,51.062
			s14.036-20.072,4.074-44.784C295.34,561.686,276.057,552.702,276.057,552.702z M593.46,228.422
			C556.06,83.528,496.681-16.658,441.419,2.302c-45.963,15.769-59.786,98.022-41.629,208.613l121.66-8.778
			c33.202-1.49,50.144,77.682,26.713,90.428l-101.914,81.156c16.093,36.902,34.85,68.06,53.883,90.446
			c1.3,5.487,1.702,12.162,1.702,12.162s0.283,5.214,1.02,14.745c-1.921-1.895-3.868-3.886-5.852-5.98l0.193-0.491l-0.084-0.501
			l-0.949-0.438l-0.148,0.377c-10.594-11.316-21.915-25.416-32.997-43.053c-31.82-50.641-60.382-139.185-70.712-195.265
			c-34.24-185.873,9.586-232.255,11.779-234.44c-0.984,0.951-27.525,26.924-41.644,75.422
			c-9.383,32.228-15.399,86.152-8.112,131.701c13.404,83.774,30.44,166.475,90.97,248.853l28.475,14.497
			c0,0,41.67,19.852,54.322,21.728c5.088,0.755,21.231,4.637,33.74,3.064c9.232-1.161,21.053-3.996,30.031-11.023
			c10.481-8.202,17.451-20.664,17.451-20.664C628.913,428.874,621.427,336.775,593.46,228.422z M345.74,235.624
			c0,0-34.985,134.385-64.318,152.589c-29.332,18.203-181.817,76.488-181.817,76.488s-12.973,2.6-27.069-37.72
			c-14.097-40.319-27.439-99.279-27.439-99.279s-17.412,20.284,9.576,104.912c7.9,24.771,40.604,56.581,40.604,56.581
			s170.911-66.086,222.427-67.162c51.515-1.075,109.23,44.886,109.23,44.886s-27.634-35.552-53.76-108.388
			C356.17,311.118,345.74,235.624,345.74,235.624z M516.524,222.471l-97.275,9.52l107.352,26.749L516.524,222.471z"/>
	</g>
</g>
</svg>
